inDegrees=yes
name=ik_l_comf_01-000_00_orientations
DataType=double
version=3
OpenSimVersion=4.5
endheader
time	pelvis_tilt	pelvis_list	pelvis_rotation	pelvis_tx	pelvis_ty	pelvis_tz	hip_flexion_r	hip_adduction_r	hip_rotation_r	knee_angle_r	knee_angle_r_beta	ankle_angle_r	subtalar_angle_r	mtp_angle_r	hip_flexion_l	hip_adduction_l	hip_rotation_l	knee_angle_l	knee_angle_l_beta	ankle_angle_l	subtalar_angle_l	mtp_angle_l	lumbar_extension	lumbar_bending	lumbar_rotation	arm_flex_r	arm_add_r	arm_rot_r	elbow_flex_r	pro_sup_r	wrist_flex_r	wrist_dev_r	arm_flex_l	arm_add_l	arm_rot_l	elbow_flex_l	pro_sup_l	wrist_flex_l	wrist_dev_l
126.0000000000115	-387.0428194077424	6.696673710655371	-273.3879105056818	0	0.9399999999999999	0	-12.99801672981146	-49.99232045731095	39.97997201660201	0.002254059089138971	3.934075263997941e-05	-26.62500157385821	0	0	79.76056664214106	-35.28050134420771	-39.98794807006448	119.6931191190986	2.089039020610045	-39.99204755575072	0	0	0	0	0	0	-14.99999877843195	0	75.00017577459933	45.0000002553408	0	0	0	-14.99999877843195	0	75.00017577459933	45.0000002553408	0	0
126.0250000000115	-387.0870800281349	6.922532822587455	-273.2924718671861	0	0.9399999999999999	0	-13.01604584172077	-49.99237450749052	39.98012415981195	0.002254722806234741	3.935233668860236e-05	-27.0578772261157	0	0	79.49585107736375	-35.23918866245591	-39.9878971530193	119.682162456535	2.08884779077328	-39.99207376356587	0	0	0	0	0	0	-14.99999877888311	0	75.00017577465101	45.0000002553408	0	0	0	-14.99999877888311	0	75.00017577465101	45.0000002553408	0	0
126.0500000000115	-387.1323762257315	7.132439759441874	-273.188227316912	0	0.9399999999999999	0	-12.99631672710888	-49.99242063813339	39.98024880570132	0.002255512061358401	3.936611178914846e-05	-27.50413706217841	0	0	79.22499237015124	-35.18664044373653	-39.98785292953417	119.6799539080473	2.08880924433048	-39.99210772393835	0	0	0	0	0	0	-14.99999877932566	0	75.00017577470169	45.0000002553408	0	0	0	-14.99999877932566	0	75.00017577470169	45.0000002553408	0	0
126.0750000000115	-387.1741210551155	7.325670471958671	-273.085894832442	0	0.9399999999999999	0	-12.97770397989665	-49.99247068899044	39.98041422837122	0.00225636901947217	3.938106852978542e-05	-27.95131628495053	0	0	78.96885961764561	-35.11324954427531	-39.98779753719158	119.674238934116	2.088709499218713	-39.99214983346951	0	0	0	0	0	0	-14.99999877976926	0	75.00017577475248	45.0000002553408	0	0	0	-14.99999877976926	0	75.00017577475248	45.0000002553408	0	0
126.1000000000115	-387.2205511963185	7.514452162749277	-272.991200135375	0	0.9399999999999999	0	-12.97748785652489	-49.99252401988867	39.98059407465996	0.002257061707464157	3.939315821593462e-05	-28.37227019952713	0	0	78.7051923374774	-35.05388163670307	-39.98773939535539	119.6611796834418	2.088481572296605	-39.99219250029503	0	0	0	0	0	0	-14.99999878023215	0	75.00017577480548	45.0000002553408	0	0	0	-14.99999878023215	0	75.00017577480548	45.0000002553408	0	0
126.1250000000116	-387.2686721821491	7.700452958106922	-272.9225452855708	0	0.9399999999999999	0	-13.01657490172043	-49.99257209860337	39.98069565113641	0.002256214029538967	3.937836344514358e-05	-28.73019559446416	0	0	78.45547646389674	-35.04868169656978	-39.98767818953016	119.6528836326975	2.088336778896205	-39.9922235798888	0	0	0	0	0	0	-14.99999878067017	0	75.00017577485562	45.0000002553408	0	0	0	-14.99999878067017	0	75.00017577485562	45.0000002553408	0	0
126.1500000000116	-387.3075532800086	7.897947682641104	-272.8656298635522	0	0.9399999999999999	0	-13.08838888430452	-49.99261567854688	39.98077671160059	0.002254878534590114	3.935505466114234e-05	-29.06258706571579	0	0	78.2019732118313	-35.06196836636832	-39.98762404226123	119.6452100130888	2.088202848968487	-39.99224927759565	0	0	0	0	0	0	-14.9999987810955	0	75.00017577490428	45.0000002553408	0	0	0	-14.9999987810955	0	75.00017577490428	45.0000002553408	0	0
126.1750000000116	-387.3426057011894	8.108865533534122	-272.8138252624669	0	0.9399999999999999	0	-13.17702099434829	-49.99265871066162	39.98084333327234	0.002253327161760896	3.932797809734649e-05	-29.38891649007657	0	0	77.91720770650925	-35.07358893403094	-39.98757709917915	119.6550881056801	2.088375254208023	-39.99229086870169	0	0	0	0	0	0	-14.99999878151436	0	75.0001757749522	45.0000002553408	0	0	0	-14.99999878151436	0	75.0001757749522	45.0000002553408	0	0
126.2000000000116	-387.3756877153166	8.336814016399686	-272.7583119346805	0	0.9399999999999999	0	-13.2789217206786	-49.99269745016603	39.98090066801236	0.002251974320496717	3.930436656302974e-05	-29.71836906206787	0	0	77.63323644776438	-35.08151775028597	-39.9875455554977	119.664572788041	2.088540793143726	-39.99232391227493	0	0	0	0	0	0	-14.99999878193586	0	75.00017577500039	45.0000002553408	0	0	0	-14.99999878193586	0	75.00017577500039	45.0000002553408	0	0
126.2250000000116	-387.4102838158594	8.573625521120533	-272.6958031828399	0	0.9399999999999999	0	-13.3870205665619	-49.99272575657402	39.98096618093573	0.002250677839486537	3.928173870071251e-05	-30.05395002397117	0	0	77.39365233682275	-35.09021595731355	-39.98752973968687	119.6558622996979	2.088388766442682	-39.99232816852199	0	0	0	0	0	0	-14.99999878236581	0	75.00017577504956	45.0000002553408	0	0	0	-14.99999878236581	0	75.00017577504956	45.0000002553408	0	0
126.2500000000116	-387.4368848492781	8.810368623655352	-272.6411615718219	0	0.9399999999999999	0	-13.48821646215884	-49.99274549905828	39.98104634969983	0.002249164138413806	3.925531963310239e-05	-30.3915553308811	0	0	77.17870128914038	-35.11151483493693	-39.98752390207586	119.6419836784319	2.088146538805953	-39.99232354725666	0	0	0	0	0	0	-14.99999878278256	0	75.00017577509722	45.0000002553408	0	0	0	-14.99999878278256	0	75.00017577509722	45.0000002553408	0	0
126.2750000000116	-387.4672708379876	9.06080047159119	-272.5764255812852	0	0.9399999999999999	0	-13.58405316063237	-49.99276296622837	39.98115454245218	0.002248001609282916	3.923502967211801e-05	-30.75366717051102	0	0	76.93135780055353	-35.12146252947645	-39.98751902418847	119.6404217707288	2.088119278373921	-39.99233123062992	0	0	0	0	0	0	-14.99999878318947	0	75.00017577514373	45.0000002553408	0	0	0	-14.99999878318947	0	75.00017577514373	45.0000002553408	0	0
126.3000000000116	-387.5016513440383	9.331918262414378	-272.4979286895946	0	0.9399999999999999	0	-13.67686998628726	-49.99278083171446	39.98127610399539	0.002247677267848914	3.922936884619403e-05	-31.14775421089553	0	0	76.63944859920441	-35.10848755524799	-39.98751466253431	119.6494911656627	2.088277569176682	-39.99235444023034	0	0	0	0	0	0	-14.99999878359316	0	75.00017577518983	45.0000002553408	0	0	0	-14.99999878359316	0	75.00017577518983	45.0000002553408	0	0
126.3250000000116	-387.5311321157511	9.608302345896789	-272.4024863129815	0	0.9399999999999999	0	-13.73595481880881	-49.99280071137642	39.98141497817861	0.002248451871893482	3.9242888237171e-05	-31.59339775600168	0	0	76.33110284931311	-35.06366785342485	-39.98751402329376	119.6658591377786	2.088563244181978	-39.99238914210287	0	0	0	0	0	0	-14.99999878399317	0	75.00017577523553	45.0000002553408	0	0	0	-14.99999878399317	0	75.00017577523553	45.0000002553408	0	0
126.3500000000116	-387.5545184447589	9.871594562947934	-272.2987786724977	0	0.9399999999999999	0	-13.76181717882038	-49.99282363266447	39.98156121924984	0.002249818496985645	3.926674034466963e-05	-32.06458786110655	0	0	76.03113402763675	-35.01188887801452	-39.98750306053785	119.6770848236313	2.088759169360903	-39.99242361433797	0	0	0	0	0	0	-14.99999878438809	0	75.00017577528064	45.0000002553408	0	0	0	-14.99999878438809	0	75.00017577528064	45.0000002553408	0	0
126.3750000000116	-387.579449548782	10.11694326159819	-272.2046888149285	0	0.9399999999999999	0	-13.7867722469856	-49.99285074223845	39.98170488685554	0.00225080445894346	3.92839486271329e-05	-32.51955893540756	0	0	75.73645702505065	-34.97582219812719	-39.98746648843873	119.6832212984138	2.088866271050324	-39.99245752003704	0	0	0	0	0	0	-14.99999878477918	0	75.00017577532527	45.0000002553408	0	0	0	-14.99999878477918	0	75.00017577532527	45.0000002553408	0	0
126.4000000000116	-387.6077096310613	10.34334206576667	-272.1353148269396	0	0.9399999999999999	0	-13.83468921861758	-49.99287755294869	39.98183708190815	0.002250769829144457	3.9283344223121e-05	-32.92032446542384	0	0	75.47273820710487	-34.96289653061707	-39.98742656864625	119.6915136797461	2.089011000407402	-39.99248716621229	0	0	0	0	0	0	-14.99999878516809	0	75.00017577536966	45.0000002553408	0	0	0	-14.99999878516809	0	75.00017577536966	45.0000002553408	0	0
126.4250000000116	-387.6377476420616	10.56196607974678	-272.079263693257	0	0.9399999999999999	0	-13.86913339850907	-49.99290666961547	39.98196999108848	0.002250749522771103	3.928298981004683e-05	-33.32007601814638	0	0	75.21498442898027	-34.94943767292562	-39.98737868300113	119.7058230702962	2.089260746386456	-39.99252199762931	0	0	0	0	0	0	-14.9999987855601	0	75.00017577541436	45.0000002553408	0	0	0	-14.9999987855601	0	75.00017577541436	45.0000002553408	0	0
126.4500000000116	-387.667640379428	10.79150340091735	-272.0103926685343	0	0.9399999999999999	0	-13.90008152646057	-49.99293044972524	39.9820809257667	0.002250997122672713	3.928731124355755e-05	-33.74029296417782	0	0	74.93201624994764	-34.89283858868265	-39.9873371942186	119.7264412976295	2.089620602339347	-39.99257141079193	0	0	0	0	0	0	-14.99999878596895	0	75.00017577546097	45.0000002553408	0	0	0	-14.99999878596895	0	75.00017577546097	45.0000002553408	0	0
126.4750000000116	-387.7007484767269	11.07091166022232	-271.926541909337	0	0.9399999999999999	0	-13.97287837877021	-49.99294956676678	39.98215820072831	0.002251384058369116	3.929406454545328e-05	-34.18219242289847	0	0	74.61451082767219	-34.80469848063375	-39.98730193676958	119.738983976974	2.08983951339093	-39.99261560124663	0	0	0	0	0	0	-14.99999878641543	0	75.00017577551188	45.0000002553408	0	0	0	-14.99999878641543	0	75.00017577551188	45.0000002553408	0	0
126.5000000000116	-387.7320310017138	11.37972485743878	-271.8664720048804	0	0.9399999999999999	0	-14.06731222778377	-49.99298198371702	39.98222673572484	0.002251728671712694	3.930007918294501e-05	-34.61163184832965	0	0	74.27458659074439	-34.77519057005775	-39.98723515900398	119.7421606107635	2.089894956109687	-39.9926473916796	0	0	0	0	0	0	-14.99999878684325	0	75.00017577556063	45.0000002553408	0	0	0	-14.99999878684325	0	75.00017577556063	45.0000002553408	0	0
